# xmcd
#
# Track frame offsets:
#	150
#	12228
#	24898
#	35737
#	47175
#	59585
#	71106
#	78278
#	84263
#	95496
#	109331
#	120890
#	129174
#	137146
#	152380
#	160102
#
# Disc length: 2291 seconds
#
# Revision: 0
# Processed by: cddbd v1.5PL3 Copyright (c) Steve Scherf et al.
# Submitted via: EasyCDDAExtractor 5.0.0.0
#
DISCID=c308f110
DTITLE=Jim Reeves - Country Legends
DYEAR=1900
DGENRE=Country
TTITLE0=Mexican Joe
TTITLE1=Bimbo
TTITLE2=Then I'll Stop Loving You
TTITLE3=Ponny Candy
TTITLE4=Drinking Tequila
TTITLE5=I Love You More
TTITLE6=I'm Beginning To Forget You
TTITLE7=Have I Told You Lately That I Love You
TTITLE8=Just Call Me Lonesome
TTITLE9=How's The World Treating You
TTITLE10=If Heartaches Are The Fashion
TTITLE11=Sweet Evening Breeze
TTITLE12=Till The End Of The World
TTITLE13=Making Believe
TTITLE14=The Oklahoma Hills
TTITLE15=I've Lived A Lot In My Time
EXTD=
EXTT0=
EXTT1=
EXTT2=
EXTT3=
EXTT4=
EXTT5=
EXTT6=
EXTT7=
EXTT8=
EXTT9=
EXTT10=
EXTT11=
EXTT12=
EXTT13=
EXTT14=
EXTT15=
PLAYORDER=
